#!OML:ASF F:\VICON\USERDATA\INSTALL\rory3\rory3.ASF
:FULLY-SPECIFIED
:DEGREES
23
root 0.3493809429244627 17.71162009398209 10.418618847164247 3.8363348217239226 4.711652149766691 1.914202528894039
lfemur -6.1198056095797675 -0.2992374880864114 -18.22925071198626
ltibia 85.78751864364563
lfoot 30.180215150516094 -22.409940641939023
ltoes -10.248882129734577
rfemur -12.513252734964308 4.834017703801597 31.302023337489832
rtibia 28.748662278379403
rfoot 17.835175192576862 0.18721389282014034
rtoes -10.511814525920405
lowerback -8.881784189112644e-10 0.697718011785784 4.48558866927617
upperback -0.19829200981491163 0.23934430724084232 2.25359873065086
thorax -6.620949183874595 0.17959517235634842 1.4506843139437111
lowerneck -18.218221968985148 -2.936551891708848 -2.6878434777853197
upperneck 14.248071308300451 -4.708075439712882 3.005973628424289
head 6.598387501534409 -1.9249715707272408 0.4760441242334725
lclavicle 1.6207994296220008e-07 1.2709671992438196e-07
lhumerus -40.1789678224265 -13.302289669481636 97.9337594507944
lradius 112.18225095674114
lwrist 30.04134954212868
lhand -26.87968979930608 3.302501746927501
lfingers nan
lthumb -0.60068522257639 32.604490554550196
rclavicle -1.2478774251040833e-07 -8.272453330982595e-08
rhumerus -57.008856747316244 4.622253283114123 -94.59870852044803
rradius 100.85127053316876
rwrist -18.113918997127097
rhand -19.03249605717824 -8.881784189112644e-10
rfingers nan
rthumb 7.87633837065395 8.349250410121675
24
root 0.3386564684866967 17.567887905365133 9.513058885003598 3.3541493982228467 3.7283540810291704 1.548635050573122
lfemur -6.540754985818163 -1.3190568699021608 -18.242630840264212
ltibia 97.6287270911696
lfoot 18.205756494660044 -20.705261349215867
ltoes -8.61911115543391
rfemur -13.320661532216649 3.171014562396942 31.84083200738894
rtibia 25.998353586293476
rfoot 21.02101718326508 -3.4285440797099187
rtoes -8.177968086430472
lowerback -8.881784189112644e-10 0.3153265215710178 4.241228657286904
upperback -0.3893859564582781 0.3903231481752776 2.290942922301925
thorax -7.317451608076616 0.2991439804980072 0.8138495090672148
lowerneck -17.864549883247754 -2.8851631558669517 -2.71465476296228
upperneck 13.812174509432714 -4.9866991589494845 2.37705828071846
head 6.793683394743391 -2.05625741352259 0.352369063892927
lclavicle 1.809666069314041e-07 1.4005406145176224e-07
lhumerus -44.57278661462128 -13.880879901365915 98.4445878966092
lradius 111.75542000717442
lwrist 30.572562321936537
lhand -26.008184673220615 2.171270255564224
lfingers nan
lthumb 0.6826629659308521 32.64505272372691
rclavicle -4.458407849406689e-08 9.346550787747242e-08
rhumerus -54.888573842821565 5.407118518041121 -95.0279658383516
rradius 100.94139019288589
rwrist -19.268482312543515
rhand -19.36408274360579 -8.881784189112644e-10
rfingers nan
rthumb 7.349280022564422 8.310151770180504
25
root 0.2811597710566424 17.934221104031316 8.33988304948192 3.4740973225574603 3.165337795062142 0.27976199235006094
lfemur -9.640686809963906 -0.428477825296052 -16.797366409582743
ltibia 101.74759289978698
lfoot 14.082012908695505 -17.46905065951472
ltoes -7.610428335666147
rfemur -14.042085350215828 3.065655425043187 33.122621541414105
rtibia 19.796847016889373
rfoot 12.788669803146679 -7.439505172740333
rtoes -7.644643027638402
lowerback -8.881784189112644e-10 0.7765729837080755 5.607672742971826
upperback 0.3655766466517125 1.8532976784494306 2.5869281166345077
thorax -8.440735695693343 1.0306937219058714 -0.7714250313491515
lowerneck -17.90266221341812 -3.1265135344078616 -2.5572420562270866
upperneck 13.57553758002666 -5.60876572781776 2.7510953564835527
head 7.296865680125453 -2.402465552197404 0.37465774519902295
lclavicle 5.470531277011363e-07 2.19848204692906e-07
lhumerus -45.428384272463546 -14.387677456174622 98.81987660322628
lradius 111.84925133891028
lwrist 30.651799281053226
lhand -26.089146830919606 2.84112562914084
lfingers nan
lthumb 0.5315512021912003 32.86331712568106
rclavicle 1.1501421773158533e-07 9.10745532177039e-08
rhumerus -51.478403834470654 6.577720933957958 -95.79254288090627
rradius 100.73995151961842
rwrist -20.15917912236655
rhand -19.077472080609414 -8.881784189112644e-10
rfingers nan
rthumb 7.485983566572255 8.107898913087018
26
root 0.22532888423529018 17.996345572143326 8.727501497425957 2.683832003046875 2.99645415501126 -0.5504355194939364
lfemur -13.788054082066154 -0.3932918313221754 -16.888997386406068
ltibia 101.09619116498325
lfoot 11.631234160657483 -13.341603700163803
ltoes -7.444921406976492
rfemur -13.498505740354636 2.3472438980091317 32.772183013336004
rtibia 17.408927299084347
rfoot 5.781698754976194 -7.53593353601105
rtoes -7.359405733925094
lowerback -8.881784189112644e-10 0.8199676901985541 4.740505464170541
upperback 0.6344337614661069 2.4846057436843108 2.7775684158688745
thorax -9.366137694611155 1.3246861844731304 -0.9959480324158416
lowerneck -18.08033585625845 -3.5742217602623656 -2.3798907162871146
upperneck 13.38955730607851 -6.115254823194483 2.717926141610996
head 7.425556679459764 -2.6242125605826168 0.40307137647720737
lclavicle 6.348900949074036e-07 3.8462550621894094e-07
lhumerus -45.77791796194966 -14.815224764814657 98.8940989680097
lradius 112.07279542606665
lwrist 30.497620977787378
lhand -25.6867546548931 3.8311474290893024
lfingers nan
lthumb 0.5679002125811607 33.35500829568352
rclavicle 3.2548433656847217e-07 1.7904187559306573e-07
rhumerus -48.36664019645991 8.010258758816516 -96.5347629397761
rradius 100.60280164310318
rwrist -20.53821097397676
rhand -19.21416844876577 -8.881784189112644e-10
rfingers nan
rthumb 7.504781492955655 8.221054615337728
